<svg xmlns="http://www.w3.org/2000/svg" viewBox="0 0 25 25"><path d="M12.492,0.913c-0.436,0-0.875,0.086-1.287,0.258L2.224,4.885C1.718,5.094,1.731,5.798,2.236,6.007l9.031,3.577 c0.791,0.321,1.676,0.321,2.467,0l9.031-3.577c0.506-0.197,0.506-0.913,0.012-1.122l-9.006-3.714 C13.366,1,12.931,0.912,12.492,0.913z M23.962,7.036c-0.077,0-0.152,0.016-0.223,0.045l-10.066,3.898 c-0.113,0.046-0.209,0.125-0.277,0.226c-0.068,0.101-0.105,0.22-0.105,0.341v8.944c0.001,0.098,0.026,0.194,0.072,0.28 c0.046,0.086,0.113,0.16,0.194,0.214c0.081,0.055,0.175,0.089,0.272,0.099c0.097,0.011,0.196-0.003,0.287-0.039l10.067-3.911 c0.113-0.042,0.21-0.118,0.278-0.217c0.068-0.099,0.105-0.217,0.104-0.337V7.636c-0.001-0.159-0.065-0.312-0.178-0.424 c-0.113-0.112-0.266-0.175-0.425-0.175V7.036z M1.115,7.075C1.025,7.072,0.936,7.087,0.853,7.12C0.77,7.153,0.695,7.202,0.632,7.266 C0.521,7.377,0.435,7.512,0.435,7.673v8.4c0,0.444,0.518,0.741,0.913,0.543l6.304-3.022l0.309-0.148l2.985-1.444 c0.469-0.221,0.432-0.913-0.061-1.098L1.323,7.118C1.257,7.09,1.186,7.075,1.115,7.074V7.075z"></path></svg>